PathFileType	4	(X/Y/Z)	37_2_53_p0_0-673_filt_butterworth.trc
DataRate	CameraRate	NumFrames	NumMarkers	Units	OrigDataRate	OrigDataStartFrame	OrigNumFrames
60.0	60.0	5	27	m	60.0	336	673
Frame#	Time	RHip			RKnee			RAnkle			RBigToe			RSmallToe			RHeel			LHip			LKnee			LAnkle			LBigToe			LSmallToe			LHeel			Neck			Head			Nose			RShoulder			RElbow			RWrist			RThumb			RIndex			RPinky			LShoulder			LElbow			LWrist			LThumb			LIndex			LPinky			
		X1	Y1	Z1	X2	Y2	Z2	X3	Y3	Z3	X4	Y4	Z4	X5	Y5	Z5	X6	Y6	Z6	X7	Y7	Z7	X8	Y8	Z8	X9	Y9	Z9	X10	Y10	Z10	X11	Y11	Z11	X12	Y12	Z12	X13	Y13	Z13	X14	Y14	Z14	X15	Y15	Z15	X16	Y16	Z16	X17	Y17	Z17	X18	Y18	Z18	X19	Y19	Z19	X20	Y20	Z20	X21	Y21	Z21	X22	Y22	Z22	X23	Y23	Z23	X24	Y24	Z24	X25	Y25	Z25	X26	Y26	Z26	X27	Y27	Z27	
336	5.6	0.3730140596648492	0.6456333891119534	0.49233968022407715	0.3494344303762896	0.8292448046526297	0.9361677070489701	0.38172950013190726	1.0390268966206084	1.3756205432335893	0.3205316033767947	0.8872053765162629	1.4339746869651382	0.38467664365035775	0.8803345142025161	1.4333451618954784	0.3707499973898588	1.161602635992481	1.4230952159781372	0.19493272754916202	0.7476793166182988	0.4748235175140654	0.19069200542386974	0.9218535841593675	0.935080122223448	0.18428879527960987	1.0735772690864986	1.355299482898464	0.17032185170736627	0.9043096735334775	1.4117564259842939	0.12267239602084191	0.9530316735501932	1.4112121132309943	0.20744473313304237	1.141635389427916	1.419582500314636	0.28123757079329653	0.5578010682876773	-0.041663346130649044	0.22067805276610236	0.427589249421777	-0.25459697144398064	0.20007912752544987	0.45636535300831194	-0.1350877815914332	0.42251120958640787	0.4778749749238695	0.07018289179443848	0.45228386996928927	0.5286908505715101	0.34520469761480316	0.41206548625061956	0.605645271187303	0.5925812811814081	0.3686945260474877	0.6436891186447132	0.6944568336621751	0.39319405972994614	0.6922814024392133	0.7228384232772889	0.41333838025388836	0.7077421956240005	0.711539412732866	0.16606057567961152	0.6823748045144926	0.025652948065532463	0.07891855177780947	0.8458838555737682	0.2503321691808507	0.08442686757565052	0.7049180687869956	0.47980753112867025	0.12391078964590801	0.7294584672767659	0.571161243992022	0.10652033029600239	0.7262759867999107	0.6011018067227059	0.08883927729173077	0.7474810747324077	0.5917742949943644
337	5.616666666666666	0.37363993111009675	0.6403584323699283	0.4955197752067179	0.34901421791240034	0.8344145763665385	0.9403309647123401	0.38301420168056155	1.0393366853589998	1.375762580559765	0.3205505345629904	0.8870678674860396	1.4338987358901663	0.3846350163803502	0.8802196563123013	1.4333259171589243	0.37095470974443945	1.1616286887507112	1.423197957010405	0.19319454654176693	0.7475569483716779	0.4750543258099056	0.19065038834058437	0.9219593609698147	0.9351130399555603	0.1837997304072098	1.0738478746309652	1.3564590146324564	0.16912409534150977	0.9026199697665918	1.4112293151280804	0.12272279069461652	0.9524675528420203	1.4110633637767318	0.20746569713218055	1.1412676874959968	1.4193234975525795	0.28124555003211993	0.5581647734194377	-0.040721626769725586	0.21931179528708875	0.4270237454404101	-0.25336291128373495	0.1994592422725457	0.45711275910629157	-0.1349534625841929	0.42269454943464946	0.4777209730027767	0.07015732570796468	0.45259058030578597	0.5292506760881108	0.347844794292443	0.41529554725631856	0.6053517263043421	0.5936446181336825	0.3688219045110146	0.643554927138166	0.694614500570044	0.39248564863677876	0.6867216704458665	0.7228789976615393	0.41356839709179527	0.7082761135505992	0.7139861406469639	0.16594358037438425	0.6823902499690762	0.025711701547222913	0.0793277396155077	0.8508333048325445	0.24881434800550156	0.08134494996247524	0.706777014908341	0.473142679136873	0.1220878026854449	0.7189098300132495	0.5632056706087839	0.10623621557155223	0.7247310656726856	0.5921798792342705	0.08625096025677144	0.74843303822192	0.5823633262335731
338	5.633333333333334	0.3741725869680801	0.6361810918184635	0.4970933385159457	0.34928734275158513	0.8425895907132488	0.9435454745493367	0.38483208878486613	1.0398188622553766	1.3759591775907747	0.32067121385999725	0.8873620075638757	1.4339593240647472	0.38470507905657847	0.8801618827134883	1.43329144370162	0.3710006716896483	1.1616723108262312	1.423267338667983	0.19276043278429714	0.7475174044471593	0.4749787073408313	0.19077485675157144	0.9216490959977681	0.9350940931776419	0.18355300607202277	1.0737563766125873	1.3569355518042758	0.1686187669640954	0.9023767710945787	1.4111678197226374	0.12273834716691934	0.9522269532409249	1.411012965735662	0.20737451069543505	1.1408166536949187	1.4190701783948898	0.28123550540815767	0.5588001686626947	-0.041030156251454016	0.2183442636696793	0.4261713150455736	-0.2516151348289479	0.1993195561774981	0.45723966073270883	-0.13495233875136556	0.4230648573608605	0.4778496710206889	0.07018549932982761	0.45299536701849386	0.5294400507886942	0.3482244773210078	0.4193142860358769	0.6045609322744645	0.5940644747453321	0.3690219353885248	0.6434225267574489	0.6947210259110188	0.3925178843534885	0.6805151843321932	0.7232070306961437	0.413931463342698	0.708868992384947	0.7155800175753969	0.1658537171696479	0.6825054123364428	0.0257673131929359	0.07686000507127769	0.8543893775526638	0.24617710407229507	0.0791576941928342	0.7088241733350112	0.46617124387605396	0.12127699805549122	0.7139327511535494	0.5555767354669621	0.10622231984928232	0.7225825718603903	0.5833326918517017	0.08378587347989125	0.7503331534762908	0.5735977335819276
339	5.65	0.374472706343012	0.6347298871791458	0.4975138118869486	0.3505066219429403	0.8517103193114836	0.945127914634121	0.38619314174241937	1.04021469489551	1.3761079930516613	0.3206797142520875	0.8876113990637629	1.4340065699375522	0.3851141350394085	0.8801460810252573	1.4332518870680448	0.37097607632226315	1.1617249865995118	1.423298258333994	0.19373148787231625	0.7476563146949955	0.47485929077713757	0.1908989212606041	0.9215355124716732	0.935109396907049	0.1834408996613835	1.0738617707477638	1.356987599219616	0.1686270192578128	0.9024369053085374	1.4112061594073229	0.12273802521691005	0.9522322766771227	1.4109931358849435	0.20723661807355312	1.140529937404115	1.4189293410426416	0.28121461378183854	0.5595345540913794	-0.0420298195516825	0.21775949152805746	0.4239410752719881	-0.25006047660407144	0.199595248690242	0.4558725991075324	-0.1349072987220117	0.42336217203085275	0.4783479399679553	0.07053615599642767	0.45388620820340875	0.5300925412469064	0.3455754387098272	0.4226158986455607	0.6037704410015059	0.5938991840098539	0.36929629712626566	0.6433829460482081	0.6947765575822408	0.3923431814850113	0.6755200626455903	0.7239411890293515	0.4142345662872734	0.709239013177113	0.7162123366498151	0.16584154389032313	0.6826531230482026	0.02579219974778096	0.07170384665400098	0.8580388846650301	0.24181064536882177	0.07760349551098668	0.7110574405670376	0.45873684214744986	0.12049160807301755	0.7139351327896843	0.5482924985141706	0.10629569656739939	0.7191933066363855	0.574373892399587	0.08209053444203078	0.7498925124221316	0.5660888569495934
340	5.666666666666667	0.37452496324210666	0.6363164332079944	0.4978140955727229	0.3522906391646616	0.8583440367243933	0.9455751798863978	0.3867104899011451	1.0403915990889379	1.3761637761367114	0.3206173151038555	0.8876748554529914	1.4339904547327278	0.3859354088490122	0.880183627529725	1.433255205538584	0.3709470477519118	1.161764828876923	1.4233107183368274	0.19534247212340472	0.7479140942591342	0.4748597698671764	0.1909682737305553	0.9216958180159404	0.9351453516213613	0.18347971919618247	1.073626394343812	1.3568123828412075	0.16903222730712178	0.9008771235218	1.4107519097578642	0.12275139412685018	0.9521817189935606	1.4109170326784204	0.20713032807126658	1.1404851396025435	1.418904442603723	0.28117902143496804	0.5601185505240166	-0.043330829907651365	0.21822005359570643	0.4206541699656856	-0.24933005266944872	0.20026186275647095	0.4525223090233214	-0.1346369409521565	0.4236754326868354	0.480095646439173	0.07130989775832265	0.4554879141433414	0.5320802256538694	0.3409375764496902	0.4243378213633726	0.6033270503512861	0.5932404689095842	0.36953683898799305	0.6434964723514643	0.6947899921784919	0.3911090452665259	0.6720506178649875	0.7245303282210352	0.4143589587667715	0.7093267808610786	0.7162289225590176	0.16590703171318502	0.6828108857416548	0.02580751658696181	0.0655846821105677	0.8622880311601507	0.2372701837966597	0.0758258759933722	0.7145338238249054	0.4517903117901221	0.11948679299818413	0.716683180332947	0.5414261165615353	0.10643464523524843	0.7147248904048192	0.5650651713299163	0.08147651779204909	0.7461958582969282	0.559754344370288
